<?xml version="1.0" standalone="no"?>
<svg xmlns="http://www.w3.org/2000/svg" viewBox="0 0 100.848 36" width="100.848" height="36"><g fill="#a8be9b" color="#a8be9b" transform="translate(72.848, 3.9999999999999982) scale(0.2800001)"><svg width="100.0" height="100.0" x="0.0" y="0.0" viewBox="0 0 100 100"><g><path d="M58.798,71.375c-3.978,2.91-6.36,7.338-7.136,12.407l16.405-12.003c0.261-0.191,0.627-0.135,0.818,0.126   c0.19,0.262,0.134,0.628-0.127,0.818L52.354,84.729c5.065,0.795,10.007-0.138,13.984-3.048c4.188-3.064,6.613-7.81,7.249-13.216   C68.242,67.436,62.986,68.311,58.798,71.375z"></path><path d="M31.932,71.779l16.405,12.003c-0.775-5.069-3.158-9.497-7.136-12.407c-4.188-3.064-9.444-3.939-14.79-2.91   c0.636,5.406,3.061,10.151,7.249,13.216c3.978,2.91,8.919,3.843,13.985,3.048L31.239,72.724c-0.261-0.19-0.317-0.557-0.127-0.818   C31.304,71.645,31.67,71.588,31.932,71.779z"></path><path d="M57.101,26.949c36.52-21.073-7.09-46.265-7.099-4.101c0.009-42.164-43.61-16.994-7.101,4.098   C6.392,5.854,6.379,56.217,42.898,35.144c-33.147,19.127-0.283,41.643,6.076,14.111v49.72c0,0.566,0.458,1.025,1.025,1.025   c0.566,0,1.025-0.459,1.025-1.025V49.297c6.371,27.471,39.198,4.984,6.074-14.151C93.61,56.238,93.62,5.876,57.101,26.949z    M50,35.438c-2.425,0-4.392-1.966-4.392-4.392c0-2.426,1.967-4.392,4.392-4.392s4.392,1.966,4.392,4.392   C54.392,33.472,52.425,35.438,50,35.438z"></path></g></svg></g><path fill="#09675b" fill-rule="nonzero" d="M2.06 19.37Q1.06 19.30 0.74 18.84Q0.43 18.38 0.43 17.47L0.43 17.47Q0.43 16.46 0.91 14.93Q1.39 13.39 2.40 10.63L2.40 10.63Q2.54 10.30 2.78 9.62L2.78 9.62Q2.18 9.67 0.94 9.84L0.94 9.84L0.12 9.96Q0.22 8.38 3.26 8.28L3.26 8.28Q4.82 3.98 6.05 1.44L6.05 1.44Q5.42 1.39 5.11 1.39L5.11 1.39Q3.58 1.39 2.75 1.70Q1.92 2.02 1.60 2.64Q1.27 3.26 1.27 4.32L1.27 4.32Q1.27 5.30 1.58 6.22L1.58 6.22Q0 5.95 0 4.34L0 4.34Q0 3.12 0.88 2.16Q1.75 1.20 3.26 0.66Q4.78 0.12 6.60 0.12L6.60 0.12Q7.49 0.12 9.12 0.31L9.12 0.31Q9.36 0.34 10.08 0.41Q10.80 0.48 11.38 0.48L11.38 0.48Q12.34 0.48 13.15 0.24L13.15 0.24Q12.31 1.20 11.71 1.56Q11.11 1.92 10.44 1.92L10.44 1.92Q9.98 1.92 8.81 1.75L8.81 1.75Q8.21 1.63 7.03 1.51L7.03 1.51Q6.36 3.14 4.73 8.30L4.73 8.30Q5.88 8.38 6.89 8.52L6.89 8.52Q8.40 8.66 8.93 8.69L8.93 8.69Q8.66 9.07 8.29 9.23Q7.92 9.38 7.14 9.43Q6.36 9.48 4.37 9.53L4.37 9.53L3.31 13.10Q2.11 17.14 2.06 19.37L2.06 19.37ZM11.98 18Q10.99 18 10.52 17.33Q10.06 16.66 10.06 15.53L10.06 15.53Q10.06 13.37 11.54 9.66Q13.03 5.95 14.87 2.98Q16.70 0 17.52 0L17.52 0Q17.86 0 18.08 0.59Q18.31 1.18 18.31 1.78L18.31 1.78Q18.31 2.88 17.41 5.03Q16.51 7.18 15.05 9.38Q13.58 11.59 11.93 12.96L11.93 12.96Q11.62 14.35 11.62 15.38L11.62 15.38Q11.62 17.23 12.67 17.23L12.67 17.23Q13.56 17.23 14.48 16.10Q15.41 14.98 16.13 13.39L16.13 13.39L16.49 13.58Q14.42 18 11.98 18L11.98 18ZM12.14 12.14Q13.46 10.82 14.72 8.82Q15.98 6.82 16.78 4.98Q17.57 3.14 17.57 2.33L17.57 2.33Q17.57 1.94 17.40 1.94L17.40 1.94Q17.06 1.94 16.02 3.59Q14.98 5.23 13.87 7.61Q12.77 9.98 12.14 12.14L12.14 12.14ZM17.30 18.05Q16.32 18.05 15.86 17.45Q15.41 16.85 15.41 15.86L15.41 15.86Q15.41 14.88 15.82 13.80Q16.22 12.72 16.87 12Q17.52 11.28 18.17 11.28L18.17 11.28Q18.38 11.28 18.67 11.40L18.67 11.40Q18.38 11.64 17.98 12.46Q17.57 13.27 17.27 14.20Q16.97 15.12 16.97 15.70L16.97 15.70Q16.97 17.06 17.83 17.06L17.83 17.06Q18.34 17.06 19.03 16.54Q19.73 16.01 20.40 15.14L20.40 15.14Q19.73 14.59 19.36 13.70Q18.98 12.82 18.98 11.86L18.98 11.86Q18.98 10.61 19.62 9.72Q20.26 8.83 21.34 8.83L21.34 8.83Q22.25 8.83 22.62 9.32Q22.99 9.82 22.99 10.68L22.99 10.68Q22.99 11.59 22.55 12.73Q22.10 13.87 21.38 14.95L21.38 14.95Q21.82 15.19 22.30 15.19L22.30 15.19Q22.99 15.19 23.74 14.77Q24.48 14.35 24.86 13.46L24.86 13.46L25.15 13.70Q24.70 14.76 23.86 15.26Q23.02 15.77 22.13 15.77L22.13 15.77Q21.48 15.77 20.98 15.53L20.98 15.53Q20.11 16.66 19.14 17.35Q18.17 18.05 17.30 18.05L17.30 18.05ZM20.83 14.52Q21.46 13.58 21.84 12.61Q22.22 11.64 22.22 10.82L22.22 10.82Q22.22 10.15 22.02 9.82Q21.82 9.48 21.50 9.48L21.50 9.48Q21.17 9.48 20.82 9.80Q20.47 10.13 20.24 10.69Q20.02 11.26 20.02 11.93L20.02 11.93Q20.02 12.67 20.22 13.36Q20.42 14.04 20.83 14.52L20.83 14.52ZM28.56 17.90Q27.74 17.90 27.28 17.47Q26.81 17.04 26.81 16.34L26.81 16.34Q26.81 15.53 27.50 13.99L27.50 13.99Q27.82 13.20 27.97 12.73Q28.13 12.26 28.13 11.86L28.13 11.86Q28.13 11.26 27.85 10.91Q27.58 10.56 27.24 10.33Q26.90 10.10 26.78 10.03L26.78 10.03Q26.26 11.38 25.66 12.66Q25.06 13.94 24.65 14.64L24.65 14.64L24.43 14.23Q25.58 12 26.38 9.67L26.38 9.67Q26.14 9.43 26.14 9.10L26.14 9.10Q26.14 8.66 26.32 8.28Q26.50 7.90 26.75 7.68Q27 7.46 27.14 7.46L27.14 7.46Q27.48 7.46 27.48 8.04L27.48 8.04Q27.48 8.14 27.36 8.47Q27.24 8.81 27.22 8.93L27.22 8.93Q27.22 9.17 27.42 9.37Q27.62 9.58 28.08 9.89L28.08 9.89Q28.82 10.42 29.24 10.93Q29.66 11.45 29.66 12.26L29.66 12.26Q29.66 12.79 29.50 13.31Q29.33 13.82 28.99 14.66L28.99 14.66Q28.46 15.82 28.46 16.32L28.46 16.32Q28.46 17.04 29.18 17.04L29.18 17.04Q29.90 17.04 30.73 16.46Q31.56 15.89 32.26 15.04Q32.95 14.18 33.26 13.46L33.26 13.46L33.58 13.70Q32.83 15.36 31.42 16.63Q30 17.90 28.56 17.90L28.56 17.90ZM37.37 6.91Q36.94 6.91 36.66 6.71Q36.38 6.50 36.38 6.12L36.38 6.12Q36.38 5.64 36.96 5.26Q37.54 4.87 38.14 4.87L38.14 4.87Q38.93 4.87 38.93 5.62L38.93 5.62Q38.93 6.07 38.44 6.49Q37.94 6.91 37.37 6.91L37.37 6.91ZM34.49 17.90Q33.60 17.90 33.12 17.34Q32.64 16.78 32.64 15.89L32.64 15.89Q32.64 14.95 33.18 13.30Q33.72 11.64 34.52 10.39Q35.33 9.14 36.10 9.14L36.10 9.14Q36.31 9.14 36.47 9.29Q36.62 9.43 36.62 9.67L36.62 9.67Q36.62 10.01 35.86 11.28L35.86 11.28Q35.06 12.60 34.60 13.64Q34.13 14.69 34.13 15.62L34.13 15.62Q34.13 16.46 34.40 16.76Q34.68 17.06 35.30 17.06L35.30 17.06Q37.18 17.06 39.00 13.39L39.00 13.39L39.22 13.63Q38.54 15.65 37.24 16.78Q35.93 17.90 34.49 17.90L34.49 17.90ZM41.06 18.50Q39.50 18.50 38.78 17.57Q38.06 16.63 38.06 15.36L38.06 15.36Q38.06 14.40 38.40 14.00Q38.74 13.61 39.13 13.44Q39.53 13.27 39.60 13.20L39.60 13.20Q41.14 11.52 41.98 9.72L41.98 9.72L41.98 9.43Q41.98 8.62 42.25 8.21Q42.53 7.80 42.91 7.80L42.91 7.80Q43.10 7.80 43.20 7.88Q43.30 7.97 43.30 8.11L43.30 8.11Q43.30 8.21 43.22 8.51Q43.15 8.81 43.15 9.17L43.15 9.17Q43.15 9.65 43.28 10.19Q43.42 10.73 43.70 11.59L43.70 11.59Q44.04 12.62 44.22 13.39Q44.40 14.16 44.40 14.95L44.40 14.95Q44.40 15.58 44.26 16.13L44.26 16.13Q45.12 15.98 45.86 15.35Q46.61 14.71 47.28 13.42L47.28 13.42L47.50 13.66Q47.06 14.90 46.18 15.62Q45.29 16.34 44.14 16.51L44.14 16.51Q43.78 17.50 42.96 18Q42.14 18.50 41.06 18.50L41.06 18.50ZM42.74 16.10Q42.84 15.48 42.84 14.98L42.84 14.98Q42.84 14.26 42.72 13.54Q42.60 12.82 42.36 11.88L42.36 11.88Q42.14 10.92 42.10 10.63L42.10 10.63Q40.87 12.65 39.77 13.75L39.77 13.75Q40.15 14.59 40.93 15.24Q41.71 15.89 42.74 16.10L42.74 16.10ZM41.11 17.66Q42.22 17.66 42.62 16.49L42.62 16.49Q41.66 16.30 40.87 15.73Q40.08 15.17 39.67 14.50L39.67 14.50Q39.14 14.52 39.14 15.34L39.14 15.34Q39.14 16.25 39.68 16.96Q40.22 17.66 41.11 17.66L41.11 17.66ZM48.86 18.38Q46.73 18.38 46.73 16.01L46.73 16.01Q46.73 14.98 47.10 13.45Q47.47 11.93 48.12 10.22L48.12 10.22Q47.54 10.13 47.26 10.03L47.26 10.03L47.26 9.60Q48.12 9.70 48.31 9.70L48.31 9.70Q49.37 6.96 50.58 4.96Q51.79 2.95 52.49 2.95L52.49 2.95Q52.68 2.95 52.84 3.10Q52.99 3.24 52.99 3.48L52.99 3.48Q52.99 3.79 52.69 4.39Q52.39 4.99 51.67 6.24L51.67 6.24Q51.55 6.48 50.93 7.57Q50.30 8.66 49.80 9.77L49.80 9.77L50.69 9.77Q52.68 9.77 54.12 9.62L54.12 9.62L54.12 10.06Q51.50 10.34 49.90 10.34L49.90 10.34L49.54 10.34Q48.22 13.37 48.22 15.58L48.22 15.58Q48.22 16.61 48.53 17.05Q48.84 17.50 49.56 17.50L49.56 17.50Q50.78 17.50 51.98 16.40Q53.18 15.31 54.12 13.39L54.12 13.39L54.43 13.63Q53.54 15.72 52.03 17.05Q50.52 18.38 48.86 18.38L48.86 18.38ZM54.82 18.41Q54.02 18.41 53.53 17.89Q53.04 17.38 53.04 16.42L53.04 16.42Q53.04 15 54.06 13.25Q55.08 11.50 56.64 10.27Q58.20 9.05 59.69 9.05L59.69 9.05Q60.62 9.05 61.25 9.55Q61.87 10.06 61.87 10.85L61.87 10.85Q61.87 11.40 61.56 11.64Q61.25 11.88 60.70 11.88L60.70 11.88Q60.82 11.45 60.82 11.04L60.82 11.04Q60.82 10.44 60.53 10.07Q60.24 9.70 59.64 9.70L59.64 9.70Q58.58 9.70 57.42 10.87Q56.26 12.05 55.48 13.68Q54.70 15.31 54.70 16.49L54.70 16.49Q54.70 17.42 55.34 17.42L55.34 17.42Q56.30 17.42 57.60 15.90Q58.90 14.38 60.38 12.19L60.38 12.19Q60.70 12.24 61.02 12.40Q61.34 12.55 61.34 12.79L61.34 12.79Q61.34 12.98 61.12 13.40Q60.89 13.82 60.84 13.90L60.84 13.90Q60.43 14.59 60.19 15.13Q59.95 15.67 59.95 16.13L59.95 16.13Q59.95 16.54 60.16 16.86Q60.36 17.18 60.77 17.18L60.77 17.18Q61.46 17.18 62.52 16.19Q63.58 15.19 64.61 13.39L64.61 13.39L64.85 13.63Q64.34 14.90 63.55 15.90Q62.76 16.90 61.85 17.45Q60.94 18 60.10 18L60.10 18Q59.26 18 58.81 17.51Q58.37 17.02 58.37 16.32L58.37 16.32Q58.37 16.01 58.44 15.62L58.44 15.62Q57.36 17.06 56.51 17.74Q55.66 18.41 54.82 18.41L54.82 18.41Z" transform="translate(0, 8.316)"></path></svg>